<?xml version="1.0" standalone="no"?>
<!DOCTYPE svg PUBLIC "-//W3C//DTD SVG 20010904//EN"
 "http://www.w3.org/TR/2001/REC-SVG-20010904/DTD/svg10.dtd">
<svg version="1.0" xmlns="http://www.w3.org/2000/svg"
 width="256.000000pt" height="256.000000pt" viewBox="0 0 256.000000 256.000000"
 preserveAspectRatio="xMidYMid meet">
<metadata>
Created by potrace 1.11, written by Peter Selinger 2001-2013
</metadata>
<g transform="translate(0.000000,256.000000) scale(0.100000,-0.100000)"
fill="#000000" stroke="none">
<path d="M1465 2093 c-12 -9 -14 -117 -3 -128 3 -4 48 -8 100 -10 51 -1 101
-6 110 -10 16 -6 44 -68 50 -110 3 -20 -3 -20 -391 -20 l-394 0 -15 23 c-17
26 -13 33 20 38 31 5 129 30 151 39 9 4 17 11 17 15 0 5 3 15 6 23 3 9 -3 24
-13 34 -16 16 -37 18 -234 17 -119 0 -220 -3 -225 -7 -5 -3 -10 -32 -12 -65
-3 -67 1 -71 70 -70 47 0 56 -6 63 -45 5 -25 -6 -59 -53 -162 -53 -119 -60
-130 -83 -127 -13 2 -67 4 -119 4 -167 3 -294 -59 -401 -192 -127 -158 -141
-394 -35 -575 57 -96 177 -188 287 -221 66 -20 177 -25 249 -12 53 9 171 59
197 82 88 82 126 127 157 190 20 40 36 80 36 89 0 15 13 17 105 17 156 0 163
4 335 205 52 61 109 126 127 145 17 19 40 44 50 56 10 12 58 65 108 118 74 81
90 94 96 79 4 -10 8 -21 8 -24 1 -3 -20 -20 -46 -37 -161 -105 -237 -244 -236
-432 0 -152 39 -247 148 -355 80 -80 152 -120 253 -139 220 -41 408 39 534
228 86 127 98 350 27 489 -90 175 -262 284 -453 285 -36 1 -70 1 -75 1 -5 1
-11 13 -14 29 -8 48 -107 355 -131 407 -27 59 -59 95 -101 114 -34 15 -254 26
-270 14z m247 -447 c-17 -21 -75 -84 -148 -163 -22 -23 -57 -61 -78 -85 -22
-24 -79 -86 -127 -138 -48 -52 -103 -112 -122 -133 l-34 -38 -68 183 c-38 101
-79 212 -93 248 -13 36 -27 76 -32 90 -4 14 -11 33 -15 42 -6 15 21 16 364 15
l370 -1 -17 -20z m-807 -201 c8 -22 44 -116 80 -210 36 -93 65 -173 65 -178 0
-5 -7 -7 -16 -5 -12 2 -18 16 -21 43 -11 116 -76 235 -179 326 l-41 36 29 64
30 64 19 -50 c11 -27 26 -68 34 -90z m-326 -71 c4 -4 -43 -112 -122 -284 -17
-36 -32 -83 -35 -106 -4 -37 -1 -44 22 -59 23 -15 51 -17 211 -16 105 0 185
-3 185 -8 0 -5 -17 -34 -37 -64 -129 -190 -379 -216 -541 -57 -86 85 -124 213
-98 330 11 48 57 129 97 169 47 47 125 88 189 99 42 8 120 6 129 -4z m1615
-32 c169 -80 250 -263 191 -433 -104 -297 -508 -325 -649 -45 -70 140 -43 300
71 412 49 49 72 53 84 14 55 -180 95 -295 108 -311 42 -49 124 -15 124 52 0
32 -30 143 -74 270 -10 30 -19 60 -19 66 0 20 101 4 164 -25z m-1397 -108 c32
-46 63 -127 63 -165 0 -17 -12 -18 -124 -18 l-124 1 15 36 c8 21 33 75 54 120
22 46 39 88 39 94 0 17 42 -20 77 -68z"/>
</g>
</svg>
